<?xml version="1.0" encoding="UTF-8" standalone="no" ?>
<!DOCTYPE svg PUBLIC "-//W3C//DTD SVG 1.1//EN" "http://www.w3.org/Graphics/SVG/1.1/DTD/svg11.dtd">
<svg xmlns="http://www.w3.org/2000/svg" xmlns:xlink="http://www.w3.org/1999/xlink" version="1.1" width="1080" height="1080" viewBox="0 0 1080 1080" xml:space="preserve">
<desc>Created with Fabric.js 5.2.4</desc>
<defs>
</defs>
<g transform="matrix(1 0 0 1 540 540)" id="4a46d49a-14be-407e-9f8b-02581c7f3eb9"  >
<rect style="stroke: none; stroke-width: 1; stroke-dasharray: none; stroke-linecap: butt; stroke-dashoffset: 0; stroke-linejoin: miter; stroke-miterlimit: 4; fill: rgb(255,255,255); fill-rule: nonzero; opacity: 1; visibility: hidden;" vector-effect="non-scaling-stroke"  x="-540" y="-540" rx="0" ry="0" width="1080" height="1080" />
</g>
<g transform="matrix(Infinity NaN NaN Infinity 0 0)" id="16a5ab07-5346-4431-aa0e-a2326c659934"  >
</g>
<g transform="matrix(26.18 0 0 26.18 536.53 538.66)"  >
<g style=""   >
		<g transform="matrix(1.25 0 0 1.25 0 -0.6)" id="quran"  >
<path style="stroke: none; stroke-width: 1; stroke-dasharray: none; stroke-linecap: butt; stroke-dashoffset: 0; stroke-linejoin: miter; stroke-miterlimit: 4; fill: rgb(188,154,123); fill-rule: nonzero; opacity: 1;" vector-effect="non-scaling-stroke"  transform=" translate(-16, -15.52)" d="M 0.5 21.50129 L 0.5 6.43639 C 0.5000029119025108 6.13406404937632 0.6367793130686609 5.847968644919784 0.8720706305270678 5.6581293013745695 C 1.1073619479854746 5.468289957829356 1.4159067272037038 5.395088294021166 1.7113999999999994 5.459 L 16 8.54952 L 30.2886 5.459 C 30.584094985541192 5.395087923589325 30.892641528736732 5.468290820693031 31.12793326078496 5.658132441052895 C 31.36322499283319 5.847974061412758 31.500000111354613 6.134072297016795 31.5 6.4364 L 31.5 21.5134 C 31.5000042797104 21.985911135479956 31.169276989705377 22.39394019497102 30.707 22.49175 L 16 25.60281 L 1.29227 22.47948 C 0.8303419100955982 22.381383827870255 0.4999982067920675 21.973519202004727 0.4999999999999999 21.50129 Z" stroke-linecap="round" />
</g>
		<g transform="matrix(1.25 0 0 1.25 0 -0.6)" id="quran"  >
<path style="stroke: none; stroke-width: 1; stroke-dasharray: none; stroke-linecap: butt; stroke-dashoffset: 0; stroke-linejoin: miter; stroke-miterlimit: 4; fill: rgb(44,43,45); fill-rule: nonzero; opacity: 1;" vector-effect="non-scaling-stroke"  transform=" translate(-16, -15.52)" d="M 16 26.10254 C 15.965065365596507 26.102372646585938 15.930231573938022 26.09877538771659 15.896 26.091800000000003 L 1.1884800000000002 22.9688 C 0.49673437105626317 22.819422162375336 0.0022210965578608466 22.208686950753133 0 21.501 L 0 6.43652 C -0.00033693067892321944 5.982969851588452 0.2047173011092806 5.553660154800445 0.5577110958453013 5.268873863830737 C 0.910704890581322 4.9840875728610285 1.3736685375283328 4.874457671210134 1.8168899999999994 4.9707 L 16 8.03809 L 30.18359 4.9707 C 30.626722559396967 4.8747710993963205 31.089463854932887 4.984534815784215 31.442301576654955 5.269270414715428 C 31.795139298377027 5.5540060136466405 32.000166483097814 5.983123053106755 32 6.43652 L 32 21.51367 C 31.997357988070036 22.221327485757268 31.502397920135955 22.831699865971405 30.81055 22.98047 L 16.10355 26.0918 C 16.069470581248915 26.098777031316516 16.03478589289228 26.102374458191942 16 26.10254 Z M 1.499 5.93652 C 1.3664835281695327 5.936519733903467 1.239409143511961 5.989230046318711 1.14579969165294 6.083027092269634 C 1.0521902397939191 6.176824138220557 0.9997344359279278 6.304003794265797 1 6.43652 L 1 21.501 C 1.0006726325805162 21.7368620703392 1.165454883044411 21.94044721185299 1.3959999999999997 21.99025 L 16 25.0918 L 30.60352 22.002 C 30.833884702498576 21.95240834353082 30.998783070182714 21.749309019753596 31 21.51367 L 31 6.43652 C 30.999960474255456 6.285376896495878 30.931623169050035 6.142345880269933 30.814063274846905 6.047351614263555 C 30.696503380643772 5.952357348257176 30.54231235988961 5.915574363003735 30.39453 5.94727 L 16.10547 9.03809 C 16.036024156667644 9.05371000174161 15.963975843332356 9.05371000174161 15.89453 9.03809 L 1.60547 5.94727 C 1.5704063948753095 5.940283702179952 1.5347524534242751 5.936683816103136 1.4989999999999999 5.93652 Z" stroke-linecap="round" />
</g>
		<g transform="matrix(1.25 0 0 1.25 0 -4.07)" id="quran"  >
<path style="stroke: none; stroke-width: 1; stroke-dasharray: none; stroke-linecap: butt; stroke-dashoffset: 0; stroke-linejoin: miter; stroke-miterlimit: 4; fill: rgb(224,224,226); fill-rule: nonzero; opacity: 1;" vector-effect="non-scaling-stroke"  transform=" translate(-16, -12.74)" d="M 27.73337 19.79405 L 16 22.61006 L 4.266629999999999 19.79406 C 3.8170081070228243 19.6861521895143 3.4999990801088403 19.28405938375286 3.5 18.82167 L 3.5 3.87846 C 3.4999993906783295 3.57218057299621 3.6403559544124553 3.282790987564562 3.8808748371686606 3.093165687449182 C 4.121393719924866 2.903540387333802 4.435547557296866 2.8345935701193783 4.733370000000001 2.9060700000000006 L 16 5.61006 L 27.26663 2.9060599999999996 C 27.564454148876127 2.834583160620697 27.87860977681197 2.9035311940096458 28.119129089333473 3.0931587830509786 C 28.359648401854976 3.282786372092312 28.500003672142114 3.572178818390747 28.5 3.87846 L 28.5 18.82167 C 28.499996296023895 19.284055649535315 28.182988261885683 19.686143060979315 27.73337 19.79405 Z" stroke-linecap="round" />
</g>
		<g transform="matrix(1.25 0 0 1.25 0 -4.07)" id="quran"  >
<path style="stroke: none; stroke-width: 1; stroke-dasharray: none; stroke-linecap: butt; stroke-dashoffset: 0; stroke-linejoin: miter; stroke-miterlimit: 4; fill: rgb(44,43,45); fill-rule: nonzero; opacity: 1;" vector-effect="non-scaling-stroke"  transform=" translate(-16, -12.74)" d="M 16 23.11035 C 15.960711246478391 23.110170967848763 15.921566536897002 23.105585636400797 15.8833 23.09668 L 4.1499 20.28027 C 3.4742967159712825 20.119990665108908 2.9979775485607183 19.515642340151377 3 18.82129 L 3 3.87891 C 2.999898656285824 3.4193225710305297 3.210468502565739 2.9850464414585582 3.5713796353635594 2.7005051099091495 C 3.932290768161379 2.4159637783597407 4.40371661740394 2.3125564017162397 4.85059 2.4199099999999993 L 16 5.0957 L 27.15039 2.41992 C 27.597156706174843 2.3125936846324957 28.068468575273357 2.416039717970026 28.4292209180516 2.700604604940806 C 28.789973260829836 2.985169491911586 29.000333326541497 3.4194327790084706 29 3.8789099999999994 L 29 18.82129 C 29.002192292974073 19.51586854836524 28.52553707764489 20.120393934682298 27.84961 20.28029 L 16.1167 23.09668 C 16.078433564451366 23.105586217623724 16.039288789240302 23.110171556759415 16 23.11035 Z M 4.49854 3.37793 C 4.222612599246417 3.378801315392052 3.9995241406769937 3.6029816338702267 4 3.87891 L 4 18.82129 C 3.9990148713199645 19.05268533613121 4.157656728115602 19.254227339253966 4.38281 19.30762 L 16 22.0957 L 27.61719 19.30762 L 27.61719 19.30762 C 27.8423432718844 19.254227339253966 28.000985128680036 19.05268533613121 28 18.82129 L 28 3.87891 C 28.000451312424513 3.7256939655975256 27.930470103167725 3.5807687324026047 27.810198569382596 3.485847106616393 C 27.689927035597467 3.3909254808301816 27.532707001871785 3.356537199963881 27.38379 3.3925799999999997 L 16.1167 6.09668 C 16.03989329270369 6.114261600876712 15.960106707296314 6.114261600876712 15.883300000000002 6.09668 L 4.6167 3.39258 C 4.578056803922436 3.3829035165630796 4.538376265462245 3.3779837477035515 4.49854 3.37793 Z" stroke-linecap="round" />
</g>
		<g transform="matrix(1.25 0 0 1.25 -7.81 4.51)" id="quran"  >
<path style="stroke: none; stroke-width: 1; stroke-dasharray: none; stroke-linecap: butt; stroke-dashoffset: 0; stroke-linejoin: miter; stroke-miterlimit: 4; fill: rgb(175,174,179); fill-rule: nonzero; opacity: 1;" vector-effect="non-scaling-stroke"  transform=" translate(-9.75, -19.61)" d="M 4.26663 19.79405 L 16 22.61006 L 16 21.97525 C 15.999999245511935 20.58808852700054 15.04897807534663 19.3818164968253 13.700119999999998 19.05809 L 3.5 16.61006 L 3.5 18.82167 C 3.500003703976107 19.284055649535315 3.817011738114319 19.686143060979315 4.266630000000001 19.79405 Z" stroke-linecap="round" />
</g>
		<g transform="matrix(1.25 0 0 1.25 -7.81 4.51)" id="quran"  >
<path style="stroke: none; stroke-width: 1; stroke-dasharray: none; stroke-linecap: butt; stroke-dashoffset: 0; stroke-linejoin: miter; stroke-miterlimit: 4; fill: rgb(44,43,45); fill-rule: nonzero; opacity: 1;" vector-effect="non-scaling-stroke"  transform=" translate(-9.75, -19.61)" d="M 16 23.11035 C 15.960711246478391 23.110170967848763 15.921566536897002 23.105585636400797 15.8833 23.09668 L 4.15039 20.28027 C 3.474577295286851 20.120207760485407 2.9980052346866595 19.51579612184593 3 18.82129 L 3 16.61035 C 3.000003617341472 16.45723170320703 3.0701799714327658 16.31255999660009 3.19043 16.21777 C 3.311011888565411 16.123623963719012 3.4677411635699427 16.089146979372998 3.6167 16.124 L 13.816889999999999 18.57127 C 15.39288885342752 18.945919538560517 16.50398705027415 20.355676802887704 16.5 21.97559 L 16.5 22.61035 C 16.499933756261395 22.88646493120556 16.27611493120556 23.110283756261396 16 23.11035 Z M 4 17.24414 L 4 18.82129 C 3.9990148713199645 19.05268533613121 4.157656728115602 19.254227339253966 4.38281 19.30762 L 4.3833 19.30762 L 15.5 21.97656 L 15.5 21.975559999999998 C 15.502507237423531 20.818619866726053 14.709006474484635 19.81186551497458 13.5835 19.544 Z" stroke-linecap="round" />
</g>
		<g transform="matrix(1.25 0 0 1.25 7.81 4.51)" id="quran"  >
<path style="stroke: none; stroke-width: 1; stroke-dasharray: none; stroke-linecap: butt; stroke-dashoffset: 0; stroke-linejoin: miter; stroke-miterlimit: 4; fill: rgb(175,174,179); fill-rule: nonzero; opacity: 1;" vector-effect="non-scaling-stroke"  transform=" translate(-22.25, -19.61)" d="M 16 22.61006 L 27.73337 19.79406 C 28.182991892977174 19.6861521895143 28.50000091989116 19.28405938375286 28.5 18.82167 L 28.5 16.61006 L 18.29988 19.05806 C 16.951011031291245 19.381789111171354 15.999986882782236 20.58807732437769 16 21.975250000000003 Z" stroke-linecap="round" />
</g>
		<g transform="matrix(1.25 0 0 1.25 1.44 -2.35)" id="quran"  >
<path style="stroke: none; stroke-width: 1; stroke-dasharray: none; stroke-linecap: butt; stroke-dashoffset: 0; stroke-linejoin: miter; stroke-miterlimit: 4; fill: rgb(44,43,45); fill-rule: nonzero; opacity: 1;" vector-effect="non-scaling-stroke"  transform=" translate(-17.15, -14.12)" d="M 16 23.11035 C 15.723885068794441 23.110283756261396 15.500066243738605 22.88646493120556 15.5 22.61035 L 15.5 21.97559 C 15.496001666155186 20.355840429985395 16.60684201241693 18.9461611646482 18.182619999999996 18.57129 L 28.38379 16.124 C 28.53259210033929 16.08941158870414 28.68905625396797 16.123862512661795 28.80957 16.21775 C 28.929825540455024 16.312544341515057 29.000002508748064 16.45722468469548 29 16.61035 L 29 18.82129 C 29.002192292974073 19.51586854836524 28.52553707764489 20.120393934682298 27.84961 20.28029 L 16.1167 23.09668 C 16.078433564451366 23.105586217623724 16.039288789240302 23.110171556759415 16 23.11035 z M 28 17.24414 L 18.416 19.544 C 17.290698024735185 19.8120919433498 16.497453351170996 20.818796440109686 16.5 21.97559 L 16.5 21.97659 L 27.61719 19.307650000000002 C 27.84235423671358 19.254254802174312 28.000999112790954 19.052696530632314 28 18.82129 z M 18.80371 13.86816 C 18.55105414822343 13.86822335804151 18.338035751020605 13.679827992246125 18.30721861439381 13.429058601089006 C 18.276401477767013 13.178289209931888 18.43746651089324 12.943922602873455 18.68262 12.88281 L 25.62891 11.146479999999999 C 25.896964164754127 11.079603839642987 26.16847883964299 11.242690835245874 26.235355000000002 11.510744999999998 C 26.302231160357014 11.778799164754123 26.13914416475413 12.050313839642987 25.871090000000002 12.117189999999999 L 18.9248 13.85352 C 18.885151183782867 13.863135795775714 18.84450803884124 13.868049625505217 18.80371 13.86816 z M 18.80371 10.86816 C 18.55105414822343 10.86822335804151 18.338035751020605 10.679827992246125 18.30721861439381 10.429058601089006 C 18.276401477767013 10.178289209931888 18.43746651089324 9.943922602873455 18.68262 9.88281 L 25.62891 8.146479999999999 C 25.896964164754127 8.079603839642987 26.16847883964299 8.242690835245874 26.235355000000002 8.510744999999998 C 26.302231160357014 8.778799164754123 26.13914416475413 9.050313839642987 25.871090000000002 9.117189999999999 L 18.9248 10.85352 C 18.885151183782867 10.863135795775714 18.84450803884124 10.868049625505217 18.80371 10.86816 z M 18.80371 7.86816 C 18.55105414822343 7.86822335804151 18.338035751020605 7.679827992246124 18.30721861439381 7.4290586010890065 C 18.276401477767013 7.178289209931888 18.43746651089324 6.943922602873455 18.68262 6.882809999999999 L 25.62891 5.1464799999999995 C 25.896964164754127 5.079603839642989 26.16847883964299 5.242690835245874 26.235355000000002 5.510744999999998 C 26.302231160357014 5.7787991647541235 26.13914416475413 6.050313839642988 25.871090000000002 6.117189999999999 L 18.9248 7.85352 C 18.885151183782867 7.863135795775714 18.84450803884124 7.868049625505216 18.80371 7.86816 z M 18.80371 16.86816 C 18.55105414822343 16.86822335804151 18.338035751020605 16.679827992246125 18.30721861439381 16.429058601089007 C 18.276401477767013 16.17828920993189 18.43746651089324 15.943922602873455 18.68262 15.88281 L 25.62891 14.146479999999999 C 25.896964164754127 14.079603839642987 26.16847883964299 14.242690835245874 26.235355000000002 14.510744999999998 C 26.302231160357014 14.778799164754123 26.13914416475413 15.050313839642987 25.871090000000002 15.117189999999999 L 18.9248 16.85352 C 18.885151183782867 16.863135795775715 18.84450803884124 16.868049625505215 18.80371 16.86816 z M 12.75049 13.86816 C 12.709528562569826 13.868079201019711 12.668719741390984 13.863165225513393 12.62891 13.85352 L 5.683109999999999 12.117189999999999 C 5.415055835245874 12.050313839642989 5.251968839642989 11.778799164754124 5.318845 11.510744999999998 C 5.38572116035701 11.242690835245874 5.657235835245874 11.079603839642989 5.9252899999999995 11.146479999999999 L 12.871089999999999 12.88281 C 13.115943658322111 12.94410004836301 13.276759984150155 13.178225004252136 13.246095822338653 13.428763410893632 C 13.21543166052715 13.679301817535128 13.00289760729447 13.867731278711997 12.75049 13.86816 z M 12.75049 10.86816 C 12.709528562569826 10.868079201019711 12.668719741390984 10.863165225513393 12.62891 10.85352 L 5.68311 9.11719 C 5.415055835245875 9.05031383964299 5.2519688396429896 8.778799164754126 5.318845 8.510745 C 5.3857211603570105 8.242690835245876 5.657235835245875 8.079603839642989 5.92529 8.14648 L 12.87109 9.882810000000001 C 13.115943658322113 9.944100048363012 13.276759984150157 10.178225004252138 13.246095822338654 10.428763410893634 C 13.215431660527152 10.67930181753513 13.002897607294472 10.867731278711998 12.750490000000001 10.868160000000001 z M 12.75049 7.86816 C 12.709528562569826 7.868079201019712 12.668719741390984 7.863165225513393 12.62891 7.85352 L 5.68311 6.11719 C 5.415055835245876 6.050313839642989 5.2519688396429896 5.778799164754124 5.3188450000000005 5.510745 C 5.385721160357011 5.242690835245876 5.657235835245876 5.0796038396429894 5.92529 5.14648 L 12.87109 6.88281 C 13.115943658322111 6.944100048363012 13.276759984150154 7.178225004252137 13.246095822338651 7.428763410893632 C 13.215431660527148 7.679301817535127 13.00289760729447 7.867731278711995 12.750490000000001 7.86816 z M 12.75049 16.86816 C 12.709528562569826 16.86807920101971 12.668719741390984 16.86316522551339 12.62891 16.85352 L 5.683109999999999 15.117189999999999 C 5.415055835245874 15.050313839642989 5.251968839642989 14.778799164754124 5.318845 14.510744999999998 C 5.38572116035701 14.242690835245874 5.657235835245874 14.079603839642989 5.9252899999999995 14.146479999999999 L 12.871089999999999 15.88281 C 13.115943658322111 15.94410004836301 13.276759984150155 16.178225004252134 13.246095822338653 16.428763410893634 C 13.21543166052715 16.67930181753513 13.00289760729447 16.867731278711997 12.75049 16.86816 z" stroke-linecap="round" />
</g>
		<g transform="matrix(1.25 0 0 1.25 0 -2.36)" id="quran"  >
<path style="stroke: none; stroke-width: 1; stroke-dasharray: none; stroke-linecap: butt; stroke-dashoffset: 0; stroke-linejoin: miter; stroke-miterlimit: 4; fill: rgb(44,43,45); fill-rule: nonzero; opacity: 1;" vector-effect="non-scaling-stroke"  transform=" translate(-16, -14.11)" d="M 16 23.11035 C 15.867368166732719 23.11042699346706 15.74014647068219 23.057773298331018 15.646361586175587 22.963988413824413 C 15.552576701668984 22.87020352931781 15.499923006532942 22.742981833267283 15.5 22.61035 L 15.5 5.61035 C 15.5 5.334207625084604 15.723857625084603 5.11035 16 5.11035 C 16.2761423749154 5.11035 16.5 5.334207625084604 16.5 5.61035 L 16.5 22.61035 C 16.500076993467058 22.742981833267283 16.447423298331017 22.87020352931781 16.353638413824413 22.963988413824413 C 16.25985352931781 23.057773298331018 16.132631833267283 23.11042699346706 16 23.11035 Z" stroke-linecap="round" />
</g>
		<g transform="matrix(1.25 0 0 1.25 8.68 12.37)" id="quran"  >
<path style="stroke: none; stroke-width: 1; stroke-dasharray: none; stroke-linecap: butt; stroke-dashoffset: 0; stroke-linejoin: miter; stroke-miterlimit: 4; fill: rgb(178,137,102); fill-rule: nonzero; opacity: 1;" vector-effect="non-scaling-stroke"  transform=" translate(-22.94, -25.9)" d="M 28.593 29.085 L 16.02 25.59625 L 29.860419999999998 22.67078 L 29.860419999999998 28.12141 C 29.860423103966014 28.433868520436206 29.7143774141808 28.728368911974812 29.465642922689298 28.9174759709263 C 29.2169084311978 29.106583029877786 28.894078801755963 29.16855765755459 28.593 29.085 Z" stroke-linecap="round" />
</g>
		<g transform="matrix(1.25 0 0 1.25 8.68 12.37)" id="quran"  >
<path style="stroke: none; stroke-width: 1; stroke-dasharray: none; stroke-linecap: butt; stroke-dashoffset: 0; stroke-linejoin: miter; stroke-miterlimit: 4; fill: rgb(44,43,45); fill-rule: nonzero; opacity: 1;" vector-effect="non-scaling-stroke"  transform=" translate(-22.94, -25.9)" d="M 28.86426 29.62207 C 28.727279198666384 29.62181406064012 28.59095813430563 29.603092114226975 28.45898 29.56641 L 28.45898 29.56641 L 15.88623 26.07813 C 15.664107315944415 26.016648826603443 15.512830306186045 25.811245552270073 15.520013778887783 25.58088318734425 C 15.527197251589522 25.350520822418424 15.690978227096538 25.15494211485987 15.9165 25.10742 L 29.756839999999997 22.18164 C 29.90419529281061 22.151565598058625 30.05729951018789 22.188409505297813 30.174839999999996 22.282230000000002 C 30.292074392887375 22.377225978866324 30.36023858359563 22.520008926872677 30.360389999999995 22.670900000000003 L 30.360389999999995 28.121090000000002 C 30.360449353425427 28.948178412908806 29.691384167776995 29.61943939564266 28.864299999999997 29.622090000000004 Z M 28.726560000000003 28.60352 C 28.8772113030744 28.6452758133219 29.038721195329902 28.614194285447574 29.16311506914975 28.519507817458322 C 29.2875089429696 28.424821349469067 29.360478872038772 28.277420887722755 29.360350000000004 28.12109 L 29.360350000000004 23.288089999999997 L 18.126950000000004 25.662089999999996 Z" stroke-linecap="round" />
</g>
		<g transform="matrix(1.25 0 0 1.25 -8.65 12.37)" id="quran"  >
<path style="stroke: none; stroke-width: 1; stroke-dasharray: none; stroke-linecap: butt; stroke-dashoffset: 0; stroke-linejoin: miter; stroke-miterlimit: 4; fill: rgb(178,137,102); fill-rule: nonzero; opacity: 1;" vector-effect="non-scaling-stroke"  transform=" translate(-9.08, -25.89)" d="M 3.427 29.085 L 16 25.59626 L 2.15957 22.66366 L 2.15957 28.12142 C 2.1595691534457573 28.433879074853554 2.3056174865032983 28.728378867677566 2.5543540837132968 28.917484072966705 C 2.803090680923295 29.10658927825584 3.1259215312057504 29.16856093038954 3.427 29.085 Z" stroke-linecap="round" />
</g>
		<g transform="matrix(1.25 0 0 1.25 -8.65 12.37)" id="quran"  >
<path style="stroke: none; stroke-width: 1; stroke-dasharray: none; stroke-linecap: butt; stroke-dashoffset: 0; stroke-linejoin: miter; stroke-miterlimit: 4; fill: rgb(44,43,45); fill-rule: nonzero; opacity: 1;" vector-effect="non-scaling-stroke"  transform=" translate(-9.08, -25.89)" d="M 3.15576 29.62207 C 2.3288427571037027 29.61901928382159 1.6600113031777706 28.947992799891594 1.6596699999999998 28.12107 L 1.65967 22.66407 C 1.6595268346107412 22.51324197746992 1.7275186779026745 22.370419169455307 1.8446821430042037 22.27543582711537 C 1.9618456081057327 22.180452484775437 2.115643300780541 22.14347255817573 2.26318 22.174809999999997 L 16.10352 25.107429999999997 C 16.329041772903462 25.154952114859867 16.49282274841048 25.35053082241842 16.500006221112216 25.580893187344245 C 16.507189693813956 25.811255552270065 16.355912684055586 26.01665882660344 16.13379 26.078139999999998 L 3.56055 29.56641 C 3.4287455197832166 29.603123555194415 3.292581987229828 29.621846503443933 3.15576 29.62207 Z M 2.6596699999999998 23.28125 L 2.6596699999999998 28.12109 C 2.6597024576243875 28.277264330035653 2.7326370180004025 28.424471260747534 2.8568710068152403 28.519109194150257 C 2.981104995630078 28.613747127552976 3.142395695216379 28.64496636479249 3.2929699999999995 28.60352 L 3.2929699999999995 28.60352 L 13.895 25.66211 Z" stroke-linecap="round" />
</g>
</g>
</g>
</svg>